<mxfile host="app.diagrams.net" modified="2024-06-12T06:45:26.675Z" agent="Mozilla/5.0 (Macintosh; Intel Mac OS X 10_15_7) AppleWebKit/537.36 (KHTML, like Gecko) Chrome/125.0.0.0 Safari/537.36" etag="t5DB9YpO86GewkktynL_" version="24.5.3" type="device">
  <diagram name="第 1 页" id="i7c2_9WWi4pN-HULZSBa">
    <mxGraphModel dx="978" dy="590" grid="1" gridSize="10" guides="1" tooltips="1" connect="1" arrows="1" fold="1" page="1" pageScale="1" pageWidth="827" pageHeight="1169" math="0" shadow="0">
      <root>
        <mxCell id="0" />
        <mxCell id="1" parent="0" />
        <mxCell id="mBUC3jkanQQRh5exfqGa-3" value="" style="rounded=0;whiteSpace=wrap;html=1;dashed=1;" vertex="1" parent="1">
          <mxGeometry x="50" y="190" width="640" height="310" as="geometry" />
        </mxCell>
        <mxCell id="mBUC3jkanQQRh5exfqGa-2" value="" style="image;sketch=0;aspect=fixed;html=1;points=[];align=center;fontSize=12;image=img/lib/mscae/Kubernetes.svg;" vertex="1" parent="1">
          <mxGeometry x="68.75" y="205" width="62.5" height="60" as="geometry" />
        </mxCell>
        <mxCell id="mBUC3jkanQQRh5exfqGa-4" value="Fed kube-apiserver" style="text;html=1;align=center;verticalAlign=middle;whiteSpace=wrap;rounded=0;" vertex="1" parent="1">
          <mxGeometry x="110" y="285" width="120" height="30" as="geometry" />
        </mxCell>
        <mxCell id="mBUC3jkanQQRh5exfqGa-5" value="" style="html=1;verticalLabelPosition=bottom;align=center;labelBackgroundColor=#ffffff;verticalAlign=top;strokeWidth=2;strokeColor=#0080F0;shadow=0;dashed=0;shape=mxgraph.ios7.icons.user;" vertex="1" parent="1">
          <mxGeometry x="10" y="330" width="30" height="30" as="geometry" />
        </mxCell>
        <mxCell id="mBUC3jkanQQRh5exfqGa-6" value="Fed ETCD" style="aspect=fixed;sketch=0;html=1;dashed=0;whitespace=wrap;verticalLabelPosition=bottom;verticalAlign=top;fillColor=#2875E2;strokeColor=#ffffff;points=[[0.005,0.63,0],[0.1,0.2,0],[0.9,0.2,0],[0.5,0,0],[0.995,0.63,0],[0.72,0.99,0],[0.5,1,0],[0.28,0.99,0]];shape=mxgraph.kubernetes.icon2;prIcon=etcd" vertex="1" parent="1">
          <mxGeometry x="86.25" y="396" width="50" height="48" as="geometry" />
        </mxCell>
        <mxCell id="mBUC3jkanQQRh5exfqGa-7" value="" style="aspect=fixed;sketch=0;html=1;dashed=0;whitespace=wrap;verticalLabelPosition=bottom;verticalAlign=top;fillColor=#2875E2;strokeColor=#ffffff;points=[[0.005,0.63,0],[0.1,0.2,0],[0.9,0.2,0],[0.5,0,0],[0.995,0.63,0],[0.72,0.99,0],[0.5,1,0],[0.28,0.99,0]];shape=mxgraph.kubernetes.icon2;kubernetesLabel=1;prIcon=api" vertex="1" parent="1">
          <mxGeometry x="136.25" y="315" width="50" height="48" as="geometry" />
        </mxCell>
        <mxCell id="mBUC3jkanQQRh5exfqGa-9" value="Fed kube-controller&lt;div&gt;manager&lt;/div&gt;" style="aspect=fixed;sketch=0;html=1;dashed=0;whitespace=wrap;verticalLabelPosition=bottom;verticalAlign=top;fillColor=#2875E2;strokeColor=#ffffff;points=[[0.005,0.63,0],[0.1,0.2,0],[0.9,0.2,0],[0.5,0,0],[0.995,0.63,0],[0.72,0.99,0],[0.5,1,0],[0.28,0.99,0]];shape=mxgraph.kubernetes.icon2;kubernetesLabel=1;prIcon=c_m" vertex="1" parent="1">
          <mxGeometry x="190" y="396" width="50" height="48" as="geometry" />
        </mxCell>
        <mxCell id="mBUC3jkanQQRh5exfqGa-10" value="Host Cluster" style="text;strokeColor=none;fillColor=none;html=1;fontSize=24;fontStyle=1;verticalAlign=middle;align=center;" vertex="1" parent="1">
          <mxGeometry x="153.75" y="215" width="100" height="40" as="geometry" />
        </mxCell>
        <mxCell id="mBUC3jkanQQRh5exfqGa-11" style="edgeStyle=orthogonalEdgeStyle;rounded=0;orthogonalLoop=1;jettySize=auto;html=1;entryX=0.005;entryY=0.63;entryDx=0;entryDy=0;entryPerimeter=0;" edge="1" parent="1" source="mBUC3jkanQQRh5exfqGa-5" target="mBUC3jkanQQRh5exfqGa-7">
          <mxGeometry relative="1" as="geometry" />
        </mxCell>
        <mxCell id="mBUC3jkanQQRh5exfqGa-12" style="rounded=0;orthogonalLoop=1;jettySize=auto;html=1;entryX=0.9;entryY=0.2;entryDx=0;entryDy=0;entryPerimeter=0;" edge="1" parent="1" source="mBUC3jkanQQRh5exfqGa-7" target="mBUC3jkanQQRh5exfqGa-6">
          <mxGeometry relative="1" as="geometry" />
        </mxCell>
        <mxCell id="mBUC3jkanQQRh5exfqGa-14" style="rounded=0;orthogonalLoop=1;jettySize=auto;html=1;entryX=0.72;entryY=0.99;entryDx=0;entryDy=0;entryPerimeter=0;" edge="1" parent="1" source="mBUC3jkanQQRh5exfqGa-9" target="mBUC3jkanQQRh5exfqGa-7">
          <mxGeometry relative="1" as="geometry" />
        </mxCell>
        <mxCell id="mBUC3jkanQQRh5exfqGa-42" style="edgeStyle=orthogonalEdgeStyle;rounded=0;orthogonalLoop=1;jettySize=auto;html=1;exitX=1;exitY=0.5;exitDx=0;exitDy=0;entryX=0;entryY=0.5;entryDx=0;entryDy=0;" edge="1" parent="1" source="mBUC3jkanQQRh5exfqGa-15" target="mBUC3jkanQQRh5exfqGa-34">
          <mxGeometry relative="1" as="geometry" />
        </mxCell>
        <mxCell id="mBUC3jkanQQRh5exfqGa-43" style="edgeStyle=orthogonalEdgeStyle;rounded=0;orthogonalLoop=1;jettySize=auto;html=1;exitX=1;exitY=0.5;exitDx=0;exitDy=0;entryX=0;entryY=0.5;entryDx=0;entryDy=0;" edge="1" parent="1" source="mBUC3jkanQQRh5exfqGa-15" target="mBUC3jkanQQRh5exfqGa-29">
          <mxGeometry relative="1" as="geometry" />
        </mxCell>
        <mxCell id="mBUC3jkanQQRh5exfqGa-44" style="edgeStyle=orthogonalEdgeStyle;rounded=0;orthogonalLoop=1;jettySize=auto;html=1;exitX=1;exitY=0.5;exitDx=0;exitDy=0;entryX=0;entryY=0.5;entryDx=0;entryDy=0;" edge="1" parent="1" source="mBUC3jkanQQRh5exfqGa-15" target="mBUC3jkanQQRh5exfqGa-38">
          <mxGeometry relative="1" as="geometry" />
        </mxCell>
        <mxCell id="mBUC3jkanQQRh5exfqGa-15" value="KubeAdmiral controller" style="rounded=0;whiteSpace=wrap;html=1;fillColor=#dae8fc;strokeColor=#6c8ebf;verticalAlign=top;" vertex="1" parent="1">
          <mxGeometry x="290" y="230" width="360" height="230" as="geometry" />
        </mxCell>
        <mxCell id="mBUC3jkanQQRh5exfqGa-16" value="&lt;font style=&quot;&quot; color=&quot;#ffffff&quot;&gt;Federate&lt;/font&gt;&lt;div&gt;&lt;font style=&quot;&quot; color=&quot;#ffffff&quot;&gt;Controller&lt;/font&gt;&lt;/div&gt;" style="rounded=0;whiteSpace=wrap;html=1;fillColor=#326ce5;strokeColor=none;" vertex="1" parent="1">
          <mxGeometry x="300" y="265" width="100" height="35" as="geometry" />
        </mxCell>
        <mxCell id="mBUC3jkanQQRh5exfqGa-17" value="&lt;font color=&quot;#ffffff&quot;&gt;Scheduler&lt;/font&gt;" style="rounded=0;whiteSpace=wrap;html=1;fillColor=#326ce5;strokeColor=none;" vertex="1" parent="1">
          <mxGeometry x="300" y="313" width="100" height="35" as="geometry" />
        </mxCell>
        <mxCell id="mBUC3jkanQQRh5exfqGa-18" value="&lt;font color=&quot;#ffffff&quot;&gt;Override&lt;/font&gt;&lt;div&gt;&lt;font color=&quot;#ffffff&quot;&gt;Controller&lt;/font&gt;&lt;/div&gt;" style="rounded=0;whiteSpace=wrap;html=1;fillColor=#326ce5;strokeColor=none;" vertex="1" parent="1">
          <mxGeometry x="300" y="359" width="100" height="35" as="geometry" />
        </mxCell>
        <mxCell id="mBUC3jkanQQRh5exfqGa-19" value="&lt;font color=&quot;#ffffff&quot;&gt;Federated Cluster&lt;/font&gt;&lt;div&gt;&lt;font color=&quot;#ffffff&quot;&gt;Controller&lt;/font&gt;&lt;/div&gt;" style="rounded=0;whiteSpace=wrap;html=1;fillColor=#326ce5;strokeColor=none;" vertex="1" parent="1">
          <mxGeometry x="420" y="265" width="100" height="35" as="geometry" />
        </mxCell>
        <mxCell id="mBUC3jkanQQRh5exfqGa-20" value="&lt;font color=&quot;#ffffff&quot;&gt;Sync Controller&lt;/font&gt;" style="rounded=0;whiteSpace=wrap;html=1;fillColor=#326ce5;strokeColor=none;" vertex="1" parent="1">
          <mxGeometry x="420" y="313" width="100" height="35" as="geometry" />
        </mxCell>
        <mxCell id="mBUC3jkanQQRh5exfqGa-21" value="&lt;font color=&quot;#ffffff&quot;&gt;Follower Controller&lt;/font&gt;" style="rounded=0;whiteSpace=wrap;html=1;fillColor=#326ce5;strokeColor=none;" vertex="1" parent="1">
          <mxGeometry x="420" y="359" width="100" height="35" as="geometry" />
        </mxCell>
        <mxCell id="mBUC3jkanQQRh5exfqGa-22" value="&lt;font color=&quot;#ffffff&quot;&gt;Auto Migration&lt;/font&gt;&lt;div&gt;&lt;font color=&quot;#ffffff&quot;&gt;Controller&lt;/font&gt;&lt;/div&gt;" style="rounded=0;whiteSpace=wrap;html=1;fillColor=#326ce5;strokeColor=none;" vertex="1" parent="1">
          <mxGeometry x="540" y="265" width="100" height="35" as="geometry" />
        </mxCell>
        <mxCell id="mBUC3jkanQQRh5exfqGa-23" value="&lt;font color=&quot;#ffffff&quot;&gt;Status Controller&lt;/font&gt;" style="rounded=0;whiteSpace=wrap;html=1;fillColor=#326ce5;strokeColor=none;" vertex="1" parent="1">
          <mxGeometry x="540" y="313" width="100" height="35" as="geometry" />
        </mxCell>
        <mxCell id="mBUC3jkanQQRh5exfqGa-24" value="&lt;font color=&quot;#ffffff&quot;&gt;Federated HPA&lt;/font&gt;&lt;div&gt;&lt;font color=&quot;#ffffff&quot;&gt;Controller&lt;/font&gt;&lt;/div&gt;" style="rounded=0;whiteSpace=wrap;html=1;fillColor=#326ce5;strokeColor=none;" vertex="1" parent="1">
          <mxGeometry x="540" y="359" width="100" height="35" as="geometry" />
        </mxCell>
        <mxCell id="mBUC3jkanQQRh5exfqGa-25" value="&lt;div&gt;&lt;font color=&quot;#ffffff&quot;&gt;MCS Controller&lt;/font&gt;&lt;/div&gt;" style="rounded=0;whiteSpace=wrap;html=1;fillColor=#326ce5;strokeColor=none;" vertex="1" parent="1">
          <mxGeometry x="300" y="405" width="100" height="35" as="geometry" />
        </mxCell>
        <mxCell id="mBUC3jkanQQRh5exfqGa-26" value="&lt;div&gt;&lt;font color=&quot;#ffffff&quot;&gt;Status Aggregator&lt;/font&gt;&lt;/div&gt;" style="rounded=0;whiteSpace=wrap;html=1;fillColor=#326ce5;strokeColor=none;" vertex="1" parent="1">
          <mxGeometry x="420" y="405" width="100" height="35" as="geometry" />
        </mxCell>
        <mxCell id="mBUC3jkanQQRh5exfqGa-27" value="&lt;div&gt;&lt;font color=&quot;#ffffff&quot;&gt;Other Controllers&lt;/font&gt;&lt;/div&gt;" style="rounded=0;whiteSpace=wrap;html=1;fillColor=#326ce5;strokeColor=none;" vertex="1" parent="1">
          <mxGeometry x="540" y="405" width="100" height="35" as="geometry" />
        </mxCell>
        <mxCell id="mBUC3jkanQQRh5exfqGa-28" style="rounded=0;orthogonalLoop=1;jettySize=auto;html=1;entryX=0.995;entryY=0.63;entryDx=0;entryDy=0;entryPerimeter=0;" edge="1" parent="1" source="mBUC3jkanQQRh5exfqGa-15" target="mBUC3jkanQQRh5exfqGa-7">
          <mxGeometry relative="1" as="geometry" />
        </mxCell>
        <mxCell id="mBUC3jkanQQRh5exfqGa-32" value="" style="group" vertex="1" connectable="0" parent="1">
          <mxGeometry x="750" y="215" width="120" height="60" as="geometry" />
        </mxCell>
        <mxCell id="mBUC3jkanQQRh5exfqGa-29" value="" style="rounded=0;whiteSpace=wrap;html=1;" vertex="1" parent="mBUC3jkanQQRh5exfqGa-32">
          <mxGeometry width="120" height="60" as="geometry" />
        </mxCell>
        <mxCell id="mBUC3jkanQQRh5exfqGa-30" value="" style="image;sketch=0;aspect=fixed;html=1;points=[];align=center;fontSize=12;image=img/lib/mscae/Kubernetes.svg;" vertex="1" parent="mBUC3jkanQQRh5exfqGa-32">
          <mxGeometry x="10" y="6" width="50" height="48" as="geometry" />
        </mxCell>
        <mxCell id="mBUC3jkanQQRh5exfqGa-31" value="Member&lt;div&gt;Cluster 1&lt;/div&gt;" style="text;html=1;align=left;verticalAlign=middle;whiteSpace=wrap;rounded=0;" vertex="1" parent="mBUC3jkanQQRh5exfqGa-32">
          <mxGeometry x="60" y="15" width="60" height="30" as="geometry" />
        </mxCell>
        <mxCell id="mBUC3jkanQQRh5exfqGa-33" value="" style="group" vertex="1" connectable="0" parent="1">
          <mxGeometry x="750" y="315" width="120" height="60" as="geometry" />
        </mxCell>
        <mxCell id="mBUC3jkanQQRh5exfqGa-34" value="" style="rounded=0;whiteSpace=wrap;html=1;" vertex="1" parent="mBUC3jkanQQRh5exfqGa-33">
          <mxGeometry width="120" height="60" as="geometry" />
        </mxCell>
        <mxCell id="mBUC3jkanQQRh5exfqGa-35" value="" style="image;sketch=0;aspect=fixed;html=1;points=[];align=center;fontSize=12;image=img/lib/mscae/Kubernetes.svg;" vertex="1" parent="mBUC3jkanQQRh5exfqGa-33">
          <mxGeometry x="10" y="6" width="50" height="48" as="geometry" />
        </mxCell>
        <mxCell id="mBUC3jkanQQRh5exfqGa-36" value="Member&lt;div&gt;Cluster 2&lt;/div&gt;" style="text;html=1;align=left;verticalAlign=middle;whiteSpace=wrap;rounded=0;" vertex="1" parent="mBUC3jkanQQRh5exfqGa-33">
          <mxGeometry x="60" y="15" width="60" height="30" as="geometry" />
        </mxCell>
        <mxCell id="mBUC3jkanQQRh5exfqGa-37" value="" style="group" vertex="1" connectable="0" parent="1">
          <mxGeometry x="750" y="415" width="120" height="60" as="geometry" />
        </mxCell>
        <mxCell id="mBUC3jkanQQRh5exfqGa-38" value="" style="rounded=0;whiteSpace=wrap;html=1;" vertex="1" parent="mBUC3jkanQQRh5exfqGa-37">
          <mxGeometry width="120" height="60" as="geometry" />
        </mxCell>
        <mxCell id="mBUC3jkanQQRh5exfqGa-39" value="" style="image;sketch=0;aspect=fixed;html=1;points=[];align=center;fontSize=12;image=img/lib/mscae/Kubernetes.svg;" vertex="1" parent="mBUC3jkanQQRh5exfqGa-37">
          <mxGeometry x="10" y="6" width="50" height="48" as="geometry" />
        </mxCell>
        <mxCell id="mBUC3jkanQQRh5exfqGa-40" value="Member&lt;div&gt;Cluster 3&lt;/div&gt;" style="text;html=1;align=left;verticalAlign=middle;whiteSpace=wrap;rounded=0;" vertex="1" parent="mBUC3jkanQQRh5exfqGa-37">
          <mxGeometry x="60" y="15" width="60" height="30" as="geometry" />
        </mxCell>
      </root>
    </mxGraphModel>
  </diagram>
</mxfile>
